<?xml version="1.0" encoding="utf-8"?>
<!-- Generator: Fusion 360, Shaper Origin Export Add-In, Version 1.7.0  -->
<svg xmlns="http://www.w3.org/2000/svg" xmlns:xlink="http://www.w3.org/1999/xlink" xmlns:shaper="http://www.shapertools.com/namespaces/shaper" shaper:fusionaddin="version:1.7.0" width="9cm" height="7cm" version="1.1" x="0cm" y="0cm" viewBox="0 0 9 7" enable-background="new 0 0 9 7" xml:space="preserve"><path d="M-3.4886419,3.4939722 L5.5113581,3.4939722 5.5113581,-3.5060278 -3.4886419,-3.5060278 -3.4886419,3.4939722z" transform="matrix(1,0,0,-1,3.4886419,3.4939722)" stroke="rgb(100,100,100)" stroke-width="0.0010cm" stroke-linecap="round" stroke-linejoin="round" fill="none" /><path d="M-3.2386419,3.0939722 a0.15,0.15 0 1,1 0.3,0 a0.15,0.15 0 1,1 -0.3,0z" transform="matrix(1,0,0,-1,3.4886419,3.4939722)" stroke="rgb(100,100,100)" stroke-width="0.0010cm" stroke-linecap="round" stroke-linejoin="round" fill="none" /><path d="M-3.0986419,3.0939722 a0.01,0.01 0 1,1 0.02,0 a0.01,0.01 0 1,1 -0.02,0z" transform="matrix(1,0,0,-1,3.4886419,3.4939722)" stroke="rgb(100,100,100)" stroke-width="0.0010cm" stroke-linecap="round" stroke-linejoin="round" fill="none" /><path d="M5.1013581,3.0939722 a0.01,0.01 0 1,1 0.02,0 a0.01,0.01 0 1,1 -0.02,0z" transform="matrix(1,0,0,-1,3.4886419,3.4939722)" stroke="rgb(100,100,100)" stroke-width="0.0010cm" stroke-linecap="round" stroke-linejoin="round" fill="none" /><path d="M4.9613581,3.0939722 a0.15,0.15 0 1,1 0.3,0 a0.15,0.15 0 1,1 -0.3,0z" transform="matrix(1,0,0,-1,3.4886419,3.4939722)" stroke="rgb(100,100,100)" stroke-width="0.0010cm" stroke-linecap="round" stroke-linejoin="round" fill="none" /><path d="M-3.0986419,-3.1060278 a0.01,0.01 0 1,1 0.02,0 a0.01,0.01 0 1,1 -0.02,0z" transform="matrix(1,0,0,-1,3.4886419,3.4939722)" stroke="rgb(100,100,100)" stroke-width="0.0010cm" stroke-linecap="round" stroke-linejoin="round" fill="none" /><path d="M-3.2386419,-3.1060278 a0.15,0.15 0 1,1 0.3,0 a0.15,0.15 0 1,1 -0.3,0z" transform="matrix(1,0,0,-1,3.4886419,3.4939722)" stroke="rgb(100,100,100)" stroke-width="0.0010cm" stroke-linecap="round" stroke-linejoin="round" fill="none" /><path d="M5.1013581,-3.1060278 a0.01,0.01 0 1,1 0.02,0 a0.01,0.01 0 1,1 -0.02,0z" transform="matrix(1,0,0,-1,3.4886419,3.4939722)" stroke="rgb(100,100,100)" stroke-width="0.0010cm" stroke-linecap="round" stroke-linejoin="round" fill="none" /><path d="M4.9613581,-3.1060278 a0.15,0.15 0 1,1 0.3,0 a0.15,0.15 0 1,1 -0.3,0z" transform="matrix(1,0,0,-1,3.4886419,3.4939722)" stroke="rgb(100,100,100)" stroke-width="0.0010cm" stroke-linecap="round" stroke-linejoin="round" fill="none" /><path d="M-1.9666419,-3.5060278 L-0.9666419,-3.5060278 -0.9666419,-2.3060278 -1.9666419,-2.3060278 -1.9666419,-3.5060278z" transform="matrix(1,0,0,-1,3.4886419,3.4939722)" stroke="rgb(100,100,100)" stroke-width="0.0010cm" stroke-linecap="round" stroke-linejoin="round" fill="none" /><path d="M-0.5086419,-3.5060278 L0.6913581,-3.5060278 0.6913581,-2.2060278 -0.5086419,-2.2060278 -0.5086419,-3.5060278z" transform="matrix(1,0,0,-1,3.4886419,3.4939722)" stroke="rgb(100,100,100)" stroke-width="0.0010cm" stroke-linecap="round" stroke-linejoin="round" fill="none" /><path d="M1.9723581,-3.5060278 L2.3723581,-3.5060278 2.3723581,-3.0834338 1.9723581,-3.0834338 1.9723581,-3.5060278z" transform="matrix(1,0,0,-1,3.4886419,3.4939722)" stroke="rgb(100,100,100)" stroke-width="0.0010cm" stroke-linecap="round" stroke-linejoin="round" fill="none" /><path d="M-2.3233771,2.4421281 a0.15,0.15 0 1,1 0.3,0 a0.15,0.15 0 1,1 -0.3,0z" transform="matrix(1,0,0,-1,3.4886419,3.4939722)" stroke="rgb(100,100,100)" stroke-width="0.0010cm" stroke-linecap="round" stroke-linejoin="round" fill="none" /></svg>